<svg width="64" height="64" viewBox="0 0 64 64" fill="none" xmlns="http://www.w3.org/2000/svg">
<path d="M49 0H15C6.71573 0 0 6.71573 0 15V49C0 57.2843 6.71573 64 15 64H49C57.2843 64 64 57.2843 64 49V15C64 6.71573 57.2843 0 49 0Z" fill="#F2F2FF"/>
<path d="M45.918 26.4102C47.179 29.5402 47.343 33.0201 46.383 36.2601C45.422 39.5001 43.395 42.3201 40.628 44.2701C37.862 46.2201 34.52 47.1701 31.144 46.9801C29.72 46.8901 28.326 46.6101 27 46.1401M35.333 17.3701C32.249 16.6701 29.016 16.9601 26.098 18.2101C22.989 19.5401 20.421 21.8801 18.81 24.8601C18.537 25.3601 18.294 25.8802 18.082 26.4102C17.043 28.9902 16.74 31.8301 17.226 34.5901C17.407 35.6301 17.695 36.6301 18.082 37.5901" stroke="#6A4BFF" stroke-width="2.5" stroke-linecap="round"/>
<path d="M38.6669 22.0033C40.5079 22.0033 42.0003 20.511 42.0003 18.67C42.0003 16.8291 40.5079 15.3367 38.6669 15.3367C36.826 15.3367 35.3336 16.8291 35.3336 18.67C35.3336 20.511 36.826 22.0033 38.6669 22.0033Z" stroke="#6A4BFF" stroke-width="2.5"/>
<path d="M23.6669 48.6632C25.5079 48.6632 27.0003 47.1708 27.0003 45.3298C27.0003 43.4889 25.5079 41.9966 23.6669 41.9966C21.826 41.9966 20.3336 43.4889 20.3336 45.3298C20.3336 47.1708 21.826 48.6632 23.6669 48.6632Z" stroke="#6A4BFF" stroke-width="2.5"/>
<path d="M27.667 28.68L31.396 27.2299C31.784 27.0799 32.216 27.0799 32.604 27.2299L36.333 28.68C36.735 28.84 37 29.23 37 29.66V31.25C37 33.48 35.972 35.5799 34.215 36.9399C32.912 37.9599 31.088 37.9599 29.785 36.9399C28.028 35.5799 27 33.48 27 31.25V29.66C27 29.23 27.265 28.84 27.667 28.68Z" stroke="#6A4BFF" stroke-width="2.5" stroke-linecap="round" stroke-linejoin="round"/>
</svg>
