<svg width="64" height="64" viewBox="0 0 64 64" fill="none" xmlns="http://www.w3.org/2000/svg">
<path d="M49 0H15C6.71573 0 0 6.71573 0 15V49C0 57.2843 6.71573 64 15 64H49C57.2843 64 64 57.2843 64 49V15C64 6.71573 57.2843 0 49 0Z" fill="#F2F2FF"/>
<path d="M22 44.9199C22.69 44.9199 23.25 44.3599 23.25 43.6699C23.25 42.9799 22.69 42.4199 22 42.4199V44.9199ZM23.667 28.6699V29.9199C24.357 29.9199 24.917 29.3599 24.917 28.6699H23.667ZM40.333 28.6699H39.083C39.083 29.3599 39.643 29.9199 40.333 29.9199V28.6699ZM42 42.4199C41.31 42.4199 40.75 42.9799 40.75 43.6699C40.75 44.3599 41.31 44.9199 42 44.9199V42.4199ZM22.833 29.9199H23.667V27.4199H22.833V29.9199ZM24.917 28.6699V26.9999H22.417V28.6699H24.917ZM39.083 26.9999V28.6699H41.583V26.9999H39.083ZM40.333 29.9199H41.167V27.4199H40.333V29.9199ZM47.417 36.1699C47.417 37.9899 46.86 39.5699 45.933 40.6599C45.022 41.7399 43.704 42.4199 42 42.4199V44.9199C44.438 44.9199 46.454 43.9199 47.841 42.2799C49.211 40.6599 49.917 38.4799 49.917 36.1699H47.417ZM32 19.9199C35.912 19.9199 39.083 23.0899 39.083 26.9999H41.583C41.583 21.7099 37.293 17.4199 32 17.4199V19.9199ZM24.917 26.9999C24.917 23.0899 28.088 19.9199 32 19.9199V17.4199C26.707 17.4199 22.417 21.7099 22.417 26.9999H24.917ZM41.167 29.9199C44.618 29.9199 47.417 32.7099 47.417 36.1699H49.917C49.917 31.3299 45.999 27.4199 41.167 27.4199V29.9199ZM16.583 36.1699C16.583 32.7099 19.382 29.9199 22.833 29.9199V27.4199C18.001 27.4199 14.083 31.3299 14.083 36.1699H16.583ZM22 42.4199C20.296 42.4199 18.978 41.7399 18.067 40.6599C17.14 39.5699 16.583 37.9899 16.583 36.1699H14.083C14.083 38.4799 14.789 40.6599 16.159 42.2799C17.546 43.9199 19.562 44.9199 22 44.9199V42.4199Z" fill="#6A4BFF"/>
<path d="M27 44.5V37.83C27 37.37 27.373 37 27.833 37H36.167C36.627 37 37 37.37 37 37.83V44.5C37 44.96 36.627 45.33 36.167 45.33H27.833C27.373 45.33 27 44.96 27 44.5Z" stroke="#6A4BFF" stroke-width="2.5" stroke-linecap="round" stroke-linejoin="round"/>
<path d="M28.667 37V35.33C28.667 33.49 30.159 32 32 32C33.841 32 35.333 33.49 35.333 35.33V37" stroke="#6A4BFF" stroke-width="2.5" stroke-linecap="round" stroke-linejoin="round"/>
</svg>
