<svg width="125" height="20" viewBox="0 0 125 20" fill="none" xmlns="http://www.w3.org/2000/svg">
<path d="M8.75601 5.47009H10.746C11.99 5.47009 13.284 5.72016 13.284 7.16016C13.284 8.41016 12.488 9.30017 10.149 9.30017H7.95999L8.75601 5.47009ZM0 19.5502H5.771L6.965 13.8301H10.896C15.871 13.8301 19.104 10.5501 19.104 6.72009C19.104 2.54009 16.866 0.600098 13.383 0.600098H3.98001L0 19.5502Z" fill="#152C5B"/>
<path d="M26.219 7.11011L26.915 12.7902H23.284L26.219 7.11011ZM13.731 19.5502H19.702L21.144 16.8701H27.313L27.612 19.5502H33.333L30.448 0.600098H24.677L13.731 19.5502Z" fill="#152C5B"/>
<path d="M35.771 12.5901L31.692 0.600098H37.562L39.353 7.66016L43.98 0.600098H50.846L41.592 12.5402L40.149 19.5502H34.328L35.771 12.5901Z" fill="#152C5B"/>
<path d="M64.776 12.3401C64.428 14.2801 62.935 20.0001 55.025 20.0001C49.502 20.0001 46.866 16.4201 46.866 11.3401C46.866 5.22009 50.697 0.100098 57.164 0.100098C61.393 0.100098 65.174 1.94011 65.274 7.61011H59.751C59.801 5.82011 58.955 4.83008 57.164 4.83008C53.93 4.83008 52.736 8.56011 52.736 11.2401C52.736 12.8401 53.134 15.2201 55.821 15.2201C57.662 15.2201 58.706 13.9802 59.055 12.2902L64.776 12.3401Z" fill="#152C5B"/>
<path d="M68.159 0.600098H74.03L72.637 7.16016H77.96L79.353 0.600098H85.224L81.244 19.5502H75.423L76.965 12.0402H71.642L70.05 19.5502H64.229L68.159 0.600098Z" fill="#152C5B"/>
<path d="M86.766 0.600098H102.438L101.443 5.47009H91.592L91.095 7.81018H100.249L99.304 12.3401H90.149L89.652 14.6802H99.702L98.706 19.5502H82.786L86.766 0.600098Z" fill="#152C5B"/>
<path d="M106.468 9.50012L102.09 0.600098H108.458L110.299 5.52014L114.08 0.600098H120.995L113.085 9.50012L117.711 19.5502H111.144L109.055 14.2802L104.627 19.5502H97.463L106.468 9.50012Z" fill="#152C5B"/>
<path d="M121.741 1.43994C121.741 0.749941 122.239 0.199951 122.935 0.199951C123.582 0.199951 124.129 0.749941 124.129 1.43994C124.129 2.13994 123.632 2.68994 122.935 2.68994C122.289 2.68994 121.741 2.13994 121.741 1.43994ZM121.493 1.43994C121.493 2.28994 122.139 2.89001 122.935 2.89001C123.731 2.89001 124.378 2.28994 124.378 1.43994C124.378 0.649941 123.731 0 122.935 0C122.139 0 121.493 0.649941 121.493 1.43994ZM122.388 2.29004H122.637V1.58997H122.886L123.333 2.33997H123.632L123.134 1.58997C123.383 1.58997 123.582 1.44001 123.582 1.14001C123.582 0.800015 123.383 0.650024 122.985 0.650024H122.388V2.29004ZM122.637 0.849976H122.985C123.184 0.849976 123.333 0.899966 123.333 1.08997C123.333 1.33997 123.134 1.39001 122.886 1.39001H122.637V0.849976Z" fill="#152C5B"/>
</svg>
