<svg width="217" height="33" viewBox="0 0 217 33" fill="none" xmlns="http://www.w3.org/2000/svg">
<path fill-rule="evenodd" clip-rule="evenodd" d="M52.736 9.85996C50.533 9.84996 48.398 10.62 46.702 12.02V10.0799H41.191V31.54H46.92V17.8299C47.536 17.0199 48.3231 16.37 49.2231 15.91C50.1231 15.45 51.115 15.2 52.125 15.17C52.907 15.12 53.689 15.24 54.423 15.51V9.99997C53.866 9.89997 53.301 9.85996 52.736 9.85996Z" fill="#152C5B"/>
<path fill-rule="evenodd" clip-rule="evenodd" d="M2.77699 24.9901C4.40399 26.3701 6.465 27.1201 8.593 27.1201C10.134 27.1201 11.327 26.3602 11.327 25.3002C11.37 22.0702 1.01801 23.2602 1.01801 16.3102C1.01801 12.2002 4.987 9.64014 9.218 9.64014C11.801 9.64014 14.328 10.3902 16.488 11.8102L13.755 15.9901C12.568 15.1001 11.138 14.6002 9.65401 14.5402C8.07001 14.5402 6.746 15.1701 6.746 16.2701C6.746 19.0601 17.099 17.9601 17.099 25.3901C17.099 29.4601 13.086 31.9901 8.593 31.9901C5.495 31.9401 2.49 30.9201 0 29.0801L2.77699 24.9901Z" fill="#152C5B"/>
<path fill-rule="evenodd" clip-rule="evenodd" d="M38.749 20.6001C38.749 14.6301 34.561 9.64014 28.643 9.64014C22.304 9.64014 18.247 14.8601 18.247 20.8201C18.181 22.3101 18.426 23.7902 18.965 25.1802C19.505 26.5702 20.327 27.8201 21.381 28.8801C22.435 29.9301 23.696 30.7502 25.084 31.2802C26.472 31.8202 27.957 32.0601 29.443 31.9901C31.086 32.0001 32.713 31.6701 34.216 31.0001C35.72 30.3401 37.066 29.3701 38.167 28.1501L34.896 24.8501C34.212 25.6001 33.383 26.2101 32.459 26.6401C31.535 27.0701 30.534 27.3001 29.516 27.3401C28.079 27.3901 26.675 26.9001 25.592 25.9501C24.51 25.0001 23.833 23.6801 23.7 22.2501H38.603C38.699 21.7001 38.747 21.1501 38.749 20.6001ZM24.063 18.0402C24.27 16.9802 24.84 16.0201 25.676 15.3401C26.512 14.6501 27.561 14.2802 28.643 14.2802C29.688 14.2802 30.695 14.6601 31.475 15.3601C32.255 16.0501 32.753 17.0102 32.875 18.0402H24.063Z" fill="#152C5B"/>
<path fill-rule="evenodd" clip-rule="evenodd" d="M68.0751 23.1802L73.935 10.0801H79.896L70.0531 31.5402H66.098L56.269 10.0801H62.216L68.0751 23.1802Z" fill="#152C5B"/>
<path fill-rule="evenodd" clip-rule="evenodd" d="M84.694 1.87617e-05C85.419 0.0100188 86.125 0.240043 86.722 0.650043C87.319 1.06004 87.782 1.64008 88.051 2.31008C88.321 2.98008 88.385 3.72007 88.237 4.43007C88.089 5.14007 87.734 5.79007 87.217 6.30007C86.7 6.81007 86.045 7.15006 85.333 7.29006C84.621 7.43006 83.884 7.34997 83.215 7.06996C82.547 6.78996 81.976 6.31999 81.574 5.71999C81.172 5.10999 80.958 4.40007 80.958 3.68007C80.958 3.19007 81.055 2.71003 81.243 2.26003C81.432 1.81003 81.708 1.40008 82.056 1.06008C82.403 0.710077 82.816 0.450029 83.269 0.260029C83.722 0.0800285 84.207 -0.00998124 84.694 1.87617e-05Z" fill="#152C5B"/>
<path d="M87.559 10.0801H81.83V31.5402H87.559V10.0801Z" fill="#152C5B"/>
<path fill-rule="evenodd" clip-rule="evenodd" d="M111.259 27.1599C110.174 28.7099 108.718 29.9699 107.024 30.8099C105.33 31.6499 103.452 32.0599 101.561 31.9899C98.599 31.9899 95.759 30.8098 93.665 28.7198C91.571 26.6198 90.394 23.7798 90.394 20.8198C90.394 17.8598 91.571 15.0199 93.665 12.9299C95.759 10.8299 98.599 9.6499 101.561 9.6499C103.294 9.6499 105.006 10.0399 106.565 10.7899C108.125 11.5499 109.492 12.6499 110.561 14.0199L106.548 17.4498C105.98 16.6698 105.237 16.0298 104.379 15.5798C103.521 15.1398 102.571 14.8999 101.604 14.8899C100.834 14.8899 100.072 15.0398 99.362 15.3398C98.651 15.6398 98.007 16.0699 97.466 16.6199C96.925 17.1699 96.498 17.8199 96.21 18.5299C95.922 19.2399 95.779 20.0099 95.788 20.7799C95.766 21.5599 95.903 22.3299 96.193 23.0499C96.483 23.7699 96.918 24.4298 97.472 24.9698C98.026 25.5198 98.687 25.9398 99.413 26.2198C100.139 26.4998 100.915 26.6298 101.692 26.5898C102.711 26.5698 103.711 26.3099 104.603 25.8099C105.495 25.3199 106.252 24.6099 106.81 23.7599L111.259 27.1599Z" fill="#152C5B"/>
<path fill-rule="evenodd" clip-rule="evenodd" d="M132.065 28.1401C130.965 29.3501 129.618 30.3301 128.115 30.9901C126.611 31.6501 124.984 31.9901 123.341 31.9701C121.857 32.0401 120.374 31.8001 118.988 31.2601C117.602 30.7301 116.343 29.9101 115.29 28.8601C114.237 27.8101 113.414 26.5602 112.872 25.1702C112.331 23.7902 112.084 22.3101 112.146 20.8201C112.146 14.8601 116.202 9.64014 122.556 9.64014C128.459 9.64014 132.647 14.6301 132.647 20.6001C132.65 21.1501 132.606 21.7001 132.516 22.2501H117.656C117.789 23.6801 118.467 25.0001 119.549 25.9501C120.631 26.9001 122.035 27.3901 123.472 27.3401C124.49 27.3001 125.491 27.0701 126.415 26.6401C127.34 26.2101 128.168 25.6001 128.852 24.8501L132.065 28.1401ZM126.744 18.0402C126.602 17.0202 126.098 16.0701 125.323 15.3801C124.547 14.6901 123.551 14.3002 122.513 14.2802C121.428 14.2702 120.375 14.6501 119.536 15.3301C118.697 16.0201 118.125 16.9802 117.918 18.0402H126.744Z" fill="#152C5B"/>
<path fill-rule="evenodd" clip-rule="evenodd" d="M134.871 31.54V10.0799H140.382V11.81C142.081 10.4 144.222 9.62999 146.431 9.63999C147.842 9.63999 149.236 9.94001 150.515 10.54C151.794 11.13 152.926 11.9999 153.831 13.0899C155.285 14.7699 156.041 16.9399 156.041 20.5999V31.54H150.298V20.17C150.378 19.44 150.306 18.71 150.088 18.02C149.871 17.33 149.511 16.69 149.033 16.14C148.157 15.33 146.997 14.8999 145.805 14.9499C144.798 14.9799 143.81 15.2299 142.913 15.6899C142.015 16.1399 141.23 16.7999 140.615 17.5899V31.54H134.871Z" fill="#152C5B"/>
<path fill-rule="evenodd" clip-rule="evenodd" d="M170.785 9.64014C168.272 9.64014 165.816 10.3902 163.736 11.8002C161.655 13.2102 160.045 15.2102 159.114 17.5402C158.184 19.8802 157.976 22.4401 158.516 24.8901C159.057 27.3401 160.323 29.5802 162.148 31.3002C162.577 31.7102 163.138 31.9601 163.73 31.9901C164.322 32.0201 164.905 31.8401 165.376 31.4801C166.92 30.3301 168.794 29.7101 170.719 29.7101C172.645 29.7101 174.519 30.3301 176.063 31.4801C176.537 31.8401 177.124 32.0201 177.719 31.9801C178.313 31.9501 178.876 31.7002 179.305 31.2902C181.119 29.5702 182.377 27.3502 182.918 24.9102C183.46 22.4702 183.26 19.9201 182.345 17.5901C181.429 15.2701 179.84 13.2701 177.78 11.8501C175.72 10.4301 173.285 9.66014 170.785 9.64014ZM170.785 28.4401C169.96 28.4601 169.139 28.3201 168.372 28.0101C167.605 27.7001 166.909 27.2502 166.325 26.6602C165.742 26.0802 165.283 25.3801 164.977 24.6201C164.672 23.8501 164.525 23.0301 164.547 22.2001C164.506 21.3601 164.638 20.5101 164.933 19.7201C165.229 18.9301 165.682 18.2001 166.266 17.5901C166.85 16.9801 167.552 16.4901 168.33 16.1501C169.108 15.8201 169.946 15.6501 170.792 15.6501C171.639 15.6501 172.476 15.8201 173.254 16.1501C174.032 16.4901 174.734 16.9801 175.318 17.5901C175.902 18.2001 176.356 18.9301 176.651 19.7201C176.946 20.5101 177.078 21.3601 177.037 22.2001C177.059 23.0301 176.912 23.8501 176.606 24.6201C176.299 25.3901 175.839 26.0802 175.254 26.6702C174.669 27.2502 173.971 27.7101 173.202 28.0101C172.434 28.3201 171.611 28.4601 170.785 28.4401Z" fill="#81B5A1"/>
<path fill-rule="evenodd" clip-rule="evenodd" d="M194.557 31.5402H190.283L181.777 10.0801H187.491L192.158 22.3501L196.738 10.0801H201.522L206.058 22.3501L210.755 10.0801H216.484L207.963 31.5402H203.703L199.123 19.3201L194.557 31.5402Z" fill="#152C5B"/>
<path d="M213.343 28.8198V29.2799H212.616V31.5399H212.092V29.2799H211.365V28.8198H213.343Z" fill="#152C5B"/>
<path d="M215.117 30.4498L216.106 28.8198H216.484V31.5399H215.96V30.0099L215.306 31.0898H214.928L214.288 30.0099V31.5399H213.75V28.8198H214.128L215.117 30.4498Z" fill="#152C5B"/>
</svg>
